<?xml version="1.0" encoding="UTF-8"?>
<svg width="20px" height="20px" viewBox="0 0 20 20" version="1.1" xmlns="http://www.w3.org/2000/svg" xmlns:xlink="http://www.w3.org/1999/xlink">
    <!-- Generator: sketchtool 39.1 (31720) - http://www.bohemiancoding.com/sketch -->
    <title>C136A041-A32D-42A9-8C09-81737AFF1AB3</title>
    <desc>Created with sketchtool.</desc>
    <defs></defs>
    <g id="Desktop-Landscape" stroke="none" stroke-width="1" fill="none" fill-rule="evenodd">
        <g id="side-nav-filters-normal-with-input-text" transform="translate(-18.000000, -778.000000)">
            <g id="side-navigation">
                <g id="layer-menu" transform="translate(0.000000, 715.000000)">
                    <g id="menu-row" transform="translate(0.000000, 49.000000)">
                        <g id="Material/Icons/Black/street-shop/active" transform="translate(16.000000, 12.000000)">
                            <rect id="24x24" x="0" y="0" width="24" height="24"></rect>
                            <path d="M3.0669011,13.1603516 L7.71195604,13.1603516 L7.71195604,22 L3.0669011,22 L3.0669011,13.1603516 Z M9.03059341,11.8416703 L9.03059341,13.1603516 L9.03059341,22 L20.9189451,22 L20.9189451,9.3570989 L9.03059341,9.3570989 L9.03059341,11.8416703 L9.03059341,11.8416703 Z M3.0669011,9.3570989 L7.71195604,9.3570989 L7.71195604,11.8416703 L3.0669011,11.8416703 L3.0669011,9.3570989 Z M20.4864615,2 L3.49942857,2 L2.29068132,4.74171429 L21.6951648,4.74171429 L20.4864615,2 Z M2,6.0603956 L21.9858901,6.0603956 L21.9858901,8.03841758 L2,8.03841758 L2,6.0603956 Z" id="street-shop" fill-opacity="0.54" fill="#000000" fill-rule="evenodd"></path>
                        </g>
                    </g>
                </g>
            </g>
        </g>
    </g>
</svg>