<?xml version="1.0" encoding="UTF-8"?>
<svg width="19px" height="15px" viewBox="0 0 19 15" version="1.1" xmlns="http://www.w3.org/2000/svg" xmlns:xlink="http://www.w3.org/1999/xlink">
    <!-- Generator: sketchtool 39.1 (31720) - http://www.bohemiancoding.com/sketch -->
    <title>E204DB29-426C-46B9-88A2-67ECBBED1044</title>
    <desc>Created with sketchtool.</desc>
    <defs></defs>
    <g id="Desktop-Landscape" stroke="none" stroke-width="1" fill="none" fill-rule="evenodd">
        <g id="List-of-meetings-Desktop-Landscape" transform="translate(-315.000000, -245.000000)">
            <g id="card" transform="translate(288.000000, 216.000000)">
                <g id="Material/Icons/Colorfull/Active/format-list-bulleted" transform="translate(24.000000, 24.000000)">
                    <g>
                        <rect id="24x24" x="0" y="0" width="24" height="24"></rect>
                        <polygon id="Path" fill="#90A4AE" points="7.5 5.5 7.5 7.5 21.5 7.5 21.5 5.5"></polygon>
                        <polygon id="Path" fill="#90A4AE" points="7.5 13.5 21.5 13.5 21.5 11.5 7.5 11.5"></polygon>
                        <polygon id="Path" fill="#90A4AE" points="7.5 19.5 21.5 19.5 21.5 17.5 7.5 17.5"></polygon>
                        <path d="M4.5,17 C3.67,17 3,17.68 3,18.5 C3,19.32 3.68,20 4.5,20 C5.32,20 6,19.32 6,18.5 C6,17.68 5.33,17 4.5,17 L4.5,17 Z" id="Path" fill="#607D8B"></path>
                        <path d="M3,6.5 C3,7.33 3.67,8 4.5,8 C5.33,8 6,7.33 6,6.5 C6,5.67 5.33,5 4.5,5 C3.67,5 3,5.67 3,6.5 Z" id="Path" fill="#607D8B"></path>
                        <path d="M3,12.5 C3,13.33 3.67,14 4.5,14 C5.33,14 6,13.33 6,12.5 C6,11.67 5.33,11 4.5,11 C3.67,11 3,11.67 3,12.5 Z" id="Path" fill="#607D8B"></path>
                    </g>
                </g>
            </g>
        </g>
    </g>
</svg>