<?xml version="1.0" encoding="UTF-8" standalone="no"?>
<svg width="20px" height="20px" viewBox="0 0 20 20" version="1.1" xmlns="http://www.w3.org/2000/svg" xmlns:xlink="http://www.w3.org/1999/xlink">
    <!-- Generator: sketchtool 3.8.3 (29802) - http://www.bohemiancoding.com/sketch -->
    <title>E3805AF0-9EF1-4404-8EF1-FE20F9CCF4EA</title>
    <desc>Created with sketchtool.</desc>
    <defs></defs>
    <g id="Desktop-Landscape" stroke="none" stroke-width="1" fill="none" fill-rule="evenodd">
        <g id="Main-screen-animate-elements-Desktop-Landscape" transform="translate(-18.000000, -526.000000)">
            <g id="side-navigation">
                <g id="layer-menu" transform="translate(0.000000, 367.000000)">
                    <g id="menu-row" transform="translate(0.000000, 145.000000)">
                        <g id="Material/Icons/Black/building/active" transform="translate(16.000000, 12.000000)">
                            <rect id="24x24" x="0" y="0" width="24" height="24"></rect>
                            <path d="M2,9.67147253 L2,22 L7.78756044,22 L7.78756044,9.67147253 L4.8938022,6.81661538 L2,9.67147253 L2,9.67147253 Z M5.5530989,18.9230769 L4.23441758,18.9230769 L4.23441758,16.0774945 L5.5530989,16.0774945 L5.5530989,18.9230769 L5.5530989,18.9230769 Z M5.5530989,14.2972747 L4.23441758,14.2972747 L4.23441758,11.4516923 L5.5530989,11.4516923 L5.5530989,14.2972747 L5.5530989,14.2972747 Z" id="Shape" fill-opacity="0.54" fill="#000000" fill-rule="evenodd"></path>
                            <path d="M12.1138022,2 C11.1478681,2 10.3648352,2.78303297 10.3648352,3.74896703 L9.10628571,3.74896703 L9.10628571,22 L14.8938022,22 L14.8938022,3.74896703 L13.8628132,3.74896703 C13.8627692,2.78303297 13.0797363,2 12.1138022,2 L12.1138022,2 Z M12.6593407,18.9230769 L11.3406593,18.9230769 L11.3406593,16.0774945 L12.6593407,16.0774945 L12.6593407,18.9230769 L12.6593407,18.9230769 Z M12.6593407,14.2972747 L11.3406593,14.2972747 L11.3406593,11.4516923 L12.6593407,11.4516923 L12.6593407,14.2972747 L12.6593407,14.2972747 Z M12.6593407,9.67147253 L11.3406593,9.67147253 L11.3406593,6.82589011 L12.6593407,6.82589011 L12.6593407,9.67147253 L12.6593407,9.67147253 Z" id="Shape" fill-opacity="0.54" fill="#000000" fill-rule="evenodd"></path>
                            <path d="M19.1062418,6.81661538 L16.2124835,9.67147253 L16.2124835,22 L22,22 L22,9.67147253 L19.1062418,6.81661538 L19.1062418,6.81661538 Z M19.7655824,18.9230769 L18.4469011,18.9230769 L18.4469011,16.0774945 L19.7655824,16.0774945 L19.7655824,18.9230769 L19.7655824,18.9230769 Z M19.7655824,14.2972747 L18.4469011,14.2972747 L18.4469011,11.4516923 L19.7655824,11.4516923 L19.7655824,14.2972747 L19.7655824,14.2972747 Z" id="Shape" fill-opacity="0.54" fill="#000000" fill-rule="evenodd"></path>
                        </g>
                    </g>
                </g>
            </g>
        </g>
    </g>
</svg>