<?xml version="1.0" encoding="UTF-8"?>
<svg width="22px" height="14px" viewBox="0 0 22 14" version="1.1" xmlns="http://www.w3.org/2000/svg" xmlns:xlink="http://www.w3.org/1999/xlink">
    <!-- Generator: sketchtool 39.1 (31720) - http://www.bohemiancoding.com/sketch -->
    <title>287F1D12-FB0C-4EA9-B7A9-F298BB5F7207</title>
    <desc>Created with sketchtool.</desc>
    <defs></defs>
    <g id="Desktop-Landscape" stroke="none" stroke-width="1" fill="none" fill-rule="evenodd">
        <g id="side-nav-filters-normal-with-input-text" transform="translate(-17.000000, -829.000000)">
            <g id="side-navigation">
                <g id="layer-menu" transform="translate(0.000000, 715.000000)">
                    <g id="menu-row" transform="translate(0.000000, 97.000000)">
                        <g id="Material/Icons/Black/map-perspective/active" transform="translate(16.000000, 12.000000)">
                            <rect id="24x24" x="0" y="0" width="24" height="24"></rect>
                            <path d="M9.97790034,11.7613765 L10.4880784,13.2047103 C9.99399643,13.428048 9.50122936,13.5982443 9.02047769,13.7120162 L8.73977095,12.1901499 C9.14267195,12.0940747 9.55890324,11.9499875 9.97790034,11.7613765 L9.97790034,11.7613765 Z M5.88641024,13.6255331 C6.38992315,13.7895227 6.92045935,13.8776472 7.46282957,13.8867264 L7.48441194,12.3313646 C7.06269437,12.3235165 6.65317357,12.2569358 6.26650468,12.131007 L5.88641024,13.6255331 L5.88641024,13.6255331 Z M16.7130486,10.9107543 C17.1093751,10.9991353 17.4959986,11.1525581 17.8625361,11.3666115 L18.4940016,9.98431844 C18.0104388,9.70327408 17.5015303,9.50122375 16.9790648,9.38560521 L16.7130486,10.9107543 L16.7130486,10.9107543 Z M13.8448613,9.63479548 L14.2560144,11.1173699 C14.6760543,10.968461 15.0912428,10.8743863 15.4911513,10.837967 L15.3813351,9.28840151 C14.8790011,9.3341052 14.3620219,9.45116 13.8448613,9.63479548 L13.8448613,9.63479548 Z M14.9488395,6.55232747 L14.9473301,6.55566954 L17.8840731,6.55566954 L19.3679059,11.5930781 L18.8939101,12.1855847 C19.3988286,12.7017132 19.6605827,13.1774215 19.6620336,13.1790629 L19.8069891,13.080423 L21.0920919,17.4443818 L2.90672924,17.4443818 L4.28450921,12.7733208 C4.33284283,12.8113303 4.37033991,12.8477496 4.42406912,12.8855539 L5.15465024,11.5700468 C4.99078751,11.452992 4.85648718,11.3375786 4.73828293,11.2298595 L6.11610825,6.55561825 L9.05398476,6.55561825 C9.05348839,6.55452093 9.0529922,6.55342401 9.05249619,6.55232747 L14.9488395,6.55232747 Z M7.81500035,5 L5.12504251,5 L1,19 L23,19 L18.8750482,5.00005129 L16.0925685,5.00005129 L7.81500035,5 Z M11.6375206,10.8045227 C11.4831795,10.9139346 11.3313321,11.0139595 11.1822506,11.1082907 L11.8510318,12.4666291 C12.0188392,12.3598332 12.190682,12.2478053 12.3624794,12.1261853 C12.5988879,11.9605543 12.8299461,11.8130816 13.0567877,11.6823311 L12.4323047,10.2971656 C12.1746312,10.4460745 11.908615,10.6146806 11.6375206,10.8045227 Z" id="map-perspective" fill-opacity="0.54" fill="#000000" fill-rule="evenodd"></path>
                        </g>
                    </g>
                </g>
            </g>
        </g>
    </g>
</svg>