<?xml version="1.0" encoding="UTF-8" standalone="no"?>
<svg width="15px" height="23px" viewBox="0 0 15 23" version="1.1" xmlns="http://www.w3.org/2000/svg" xmlns:xlink="http://www.w3.org/1999/xlink">
    <!-- Generator: sketchtool 3.8.3 (29802) - http://www.bohemiancoding.com/sketch -->
    <title>379C8C9A-0480-40BF-8D68-9BB780E457AB</title>
    <desc>Created with sketchtool.</desc>
    <defs></defs>
    <g id="Desktop-Landscape" stroke="none" stroke-width="1" fill="none" fill-rule="evenodd">
        <g id="Main-screen-tooltip-and-hover-Desktop-Landscape" transform="translate(-1181.000000, -703.000000)">
            <g id="fab-mini-" transform="translate(1168.000000, 694.000000)">
                <g id="Material/Icons/Black/add-pin/active" transform="translate(8.000000, 8.000000)">
                    <rect id="24x24" x="0" y="0" width="24" height="24"></rect>
                    <path d="M13.4395942,23.3146553 C13.2844805,23.7046413 12.891461,23.9622044 12.4522727,23.9640481 C12.0125974,23.9653848 11.6171916,23.710495 11.4592532,23.3227675 C9.31474026,18.0534629 5,11.2832585 5,8.06791383 C4.9999513,4.17118838 8.34923701,1 12.4684416,1 C16.5856981,1 19.9359578,4.17118838 19.9359578,8.06791383 C19.9363961,11.2927074 15.5579058,17.9886112 13.4395942,23.3146553 L13.4395942,23.3146553 Z M12.4684416,2.34423246 C9.23857143,2.34423246 6.61157468,4.83049098 6.61157468,7.88598798 C6.61157468,10.9432826 9.23857143,13.4308778 12.4684416,13.4308778 C15.6973377,13.4308778 18.3243344,10.9441583 18.3243344,7.88598798 C18.3238474,4.83049098 15.6973377,2.34423246 12.4684416,2.34423246 Z M13.1625974,4 L11.7625974,4 L11.7625974,6.8 L8.9625974,6.8 L8.9625974,8.2 L11.7625974,8.2 L11.7625974,11 L13.1625974,11 L13.1625974,8.2 L15.9625974,8.2 L15.9625974,6.8 L13.1625974,6.8 L13.1625974,4 Z" id="add-pin" fill-opacity="0.54" fill="#000000" fill-rule="evenodd"></path>
                </g>
            </g>
        </g>
    </g>
</svg>