<?xml version="1.0" encoding="UTF-8" standalone="no"?>
<svg width="174px" height="26px" viewBox="0 0 174 26" version="1.1" xmlns="http://www.w3.org/2000/svg" xmlns:xlink="http://www.w3.org/1999/xlink">
    <!-- Generator: sketchtool 3.8.3 (29802) - http://www.bohemiancoding.com/sketch -->
    <title>F3F8769B-99AF-4D5D-97C3-231CA919588E</title>
    <desc>Created with sketchtool.</desc>
    <defs>
        <filter x="-50%" y="-50%" width="200%" height="200%" filterUnits="objectBoundingBox" id="filter-1">
            <feOffset dx="0" dy="2" in="SourceAlpha" result="shadowOffsetOuter1"></feOffset>
            <feGaussianBlur stdDeviation="1" in="shadowOffsetOuter1" result="shadowBlurOuter1"></feGaussianBlur>
            <feColorMatrix values="0 0 0 0 0   0 0 0 0 0   0 0 0 0 0  0 0 0 0.24 0" type="matrix" in="shadowBlurOuter1" result="shadowMatrixOuter1"></feColorMatrix>
            <feMerge>
                <feMergeNode in="shadowMatrixOuter1"></feMergeNode>
                <feMergeNode in="SourceGraphic"></feMergeNode>
            </feMerge>
        </filter>
        <linearGradient x1="50%" y1="0%" x2="50%" y2="98.6467634%" id="linearGradient-2">
            <stop stop-color="#FFFFFF" stop-opacity="0.8" offset="0%"></stop>
            <stop stop-color="#FFFFFF" stop-opacity="0.4" offset="5.58035714%"></stop>
            <stop stop-color="#FFFFFF" stop-opacity="0" offset="21.1236448%"></stop>
            <stop stop-color="#FFFFFF" stop-opacity="0" offset="100%"></stop>
        </linearGradient>
        <linearGradient x1="50%" y1="0%" x2="50%" y2="100%" id="linearGradient-3">
            <stop stop-color="#000000" stop-opacity="0" offset="0%"></stop>
            <stop stop-color="#000000" stop-opacity="0" offset="81.3356983%"></stop>
            <stop stop-color="#000000" stop-opacity="0.0243972237" offset="94.6289062%"></stop>
            <stop stop-color="#000000" stop-opacity="0.04" offset="100%"></stop>
        </linearGradient>
        <path d="M0.554455446,2.397 C0.524808168,1.92547089 0.695185679,1.46371455 1.02209501,1.12960543 C1.34900434,0.795496316 1.80081019,0.621366443 2.26217822,0.651666667 C2.72447585,0.619658495 3.17781176,0.793032188 3.50598541,1.12734803 C3.83415906,1.46166387 4.00526527,1.92441955 3.97544554,2.397 L3.97544554,7.46866667 L9.35366337,1.41666667 C9.66923032,0.966850559 10.1660107,0.685939154 10.7065347,0.651666667 C11.1051058,0.614052158 11.5017433,0.741746811 11.807262,1.00603804 C12.1127806,1.27032926 12.3015371,1.6490343 12.3310891,2.057 C12.3183644,2.51735112 12.1172165,2.95112064 11.7766337,3.25266667 L8.27247525,7.021 L12.419802,13.4753333 C12.7520897,13.8693367 12.9759666,14.3465078 13.0685149,14.858 C13.0685149,16.1556667 12.1314851,16.558 11.3164356,16.558 C10.6709971,16.6113247 10.0625861,16.243685 9.79722772,15.64 L5.8550495,9.40666667 L3.97544554,11.3333333 L3.97544554,14.807 C4.0035977,15.2786283 3.83175419,15.739821 3.50378281,16.072846 C3.17581143,16.405871 2.72345073,16.5785007 2.26217822,16.5466667 C1.7997815,16.5771431 1.34699784,16.4022685 1.01988625,16.0668672 C0.692774651,15.7314659 0.523137025,15.2681458 0.554455446,14.7956667 L0.554455446,2.397 L0.554455446,2.397 Z" id="path-4"></path>
        <filter x="-50%" y="-50%" width="200%" height="200%" filterUnits="objectBoundingBox" id="filter-5">
            <feOffset dx="0" dy="2" in="SourceAlpha" result="shadowOffsetOuter1"></feOffset>
            <feGaussianBlur stdDeviation="1" in="shadowOffsetOuter1" result="shadowBlurOuter1"></feGaussianBlur>
            <feComposite in="shadowBlurOuter1" in2="SourceAlpha" operator="out" result="shadowBlurOuter1"></feComposite>
            <feColorMatrix values="0 0 0 0 0   0 0 0 0 0   0 0 0 0 0  0 0 0 0.24 0" type="matrix" in="shadowBlurOuter1" result="shadowMatrixOuter1"></feColorMatrix>
            <feOffset dx="0" dy="0" in="SourceAlpha" result="shadowOffsetOuter2"></feOffset>
            <feGaussianBlur stdDeviation="1" in="shadowOffsetOuter2" result="shadowBlurOuter2"></feGaussianBlur>
            <feComposite in="shadowBlurOuter2" in2="SourceAlpha" operator="out" result="shadowBlurOuter2"></feComposite>
            <feColorMatrix values="0 0 0 0 0   0 0 0 0 0   0 0 0 0 0  0 0 0 0.12 0" type="matrix" in="shadowBlurOuter2" result="shadowMatrixOuter2"></feColorMatrix>
            <feMerge>
                <feMergeNode in="shadowMatrixOuter1"></feMergeNode>
                <feMergeNode in="shadowMatrixOuter2"></feMergeNode>
            </feMerge>
        </filter>
        <mask id="mask-6" maskContentUnits="userSpaceOnUse" maskUnits="objectBoundingBox" x="0" y="0" width="12.5177409" height="15.9179095" fill="white">
            <use xlink:href="#path-4"></use>
        </mask>
        <mask id="mask-7" maskContentUnits="userSpaceOnUse" maskUnits="objectBoundingBox" x="0" y="0" width="12.5177409" height="15.9179095" fill="white">
            <use xlink:href="#path-4"></use>
        </mask>
        <path d="M17.9920792,10.2793333 L13.800396,3.16766667 C13.6270871,2.89913551 13.5275142,2.58796667 13.5120792,2.26666667 C13.5216437,1.81438794 13.7119777,1.38583299 14.0387898,1.08072794 C14.3656019,0.775622889 14.800391,0.620575813 15.2419802,0.651666667 C15.9267705,0.611681302 16.5550249,1.03897209 16.7833663,1.7 L19.7663366,7.30433333 L22.7326733,1.7 C23.1263366,0.935 23.5033663,0.68 24.2130693,0.68 C24.6424021,0.660064051 25.0616756,0.816618603 25.3773164,1.11472386 C25.6929573,1.41282911 25.8786924,1.82767151 25.8930693,2.26666667 C25.8789567,2.59434737 25.7773289,2.91182474 25.5992079,3.18466667 L21.4130693,10.2793333 L21.4130693,14.8126667 C21.4427166,15.2841958 21.2723391,15.7459521 20.9454297,16.0800612 C20.6185204,16.4141704 20.1667146,16.5883002 19.7053465,16.558 C19.2439785,16.5883002 18.7921727,16.4141704 18.4652633,16.0800612 C18.138354,15.7459521 17.9679765,15.2841958 17.9976238,14.8126667 L17.9976238,10.2793333 L17.9920792,10.2793333 Z" id="path-8"></path>
        <filter x="-50%" y="-50%" width="200%" height="200%" filterUnits="objectBoundingBox" id="filter-9">
            <feOffset dx="0" dy="2" in="SourceAlpha" result="shadowOffsetOuter1"></feOffset>
            <feGaussianBlur stdDeviation="1" in="shadowOffsetOuter1" result="shadowBlurOuter1"></feGaussianBlur>
            <feComposite in="shadowBlurOuter1" in2="SourceAlpha" operator="out" result="shadowBlurOuter1"></feComposite>
            <feColorMatrix values="0 0 0 0 0   0 0 0 0 0   0 0 0 0 0  0 0 0 0.24 0" type="matrix" in="shadowBlurOuter1" result="shadowMatrixOuter1"></feColorMatrix>
            <feOffset dx="0" dy="0" in="SourceAlpha" result="shadowOffsetOuter2"></feOffset>
            <feGaussianBlur stdDeviation="1" in="shadowOffsetOuter2" result="shadowBlurOuter2"></feGaussianBlur>
            <feComposite in="shadowBlurOuter2" in2="SourceAlpha" operator="out" result="shadowBlurOuter2"></feComposite>
            <feColorMatrix values="0 0 0 0 0   0 0 0 0 0   0 0 0 0 0  0 0 0 0.12 0" type="matrix" in="shadowBlurOuter2" result="shadowMatrixOuter2"></feColorMatrix>
            <feMerge>
                <feMergeNode in="shadowMatrixOuter1"></feMergeNode>
                <feMergeNode in="shadowMatrixOuter2"></feMergeNode>
            </feMerge>
        </filter>
        <mask id="mask-10" maskContentUnits="userSpaceOnUse" maskUnits="objectBoundingBox" x="0" y="0" width="12.3809901" height="15.9136361" fill="white">
            <use xlink:href="#path-8"></use>
        </mask>
        <mask id="mask-11" maskContentUnits="userSpaceOnUse" maskUnits="objectBoundingBox" x="0" y="0" width="12.3809901" height="15.9136361" fill="white">
            <use xlink:href="#path-8"></use>
        </mask>
        <path d="M27.3790099,2.397 C27.3790099,1.43151421 28.1448246,0.648833333 29.089505,0.648833333 C30.0341853,0.648833333 30.8,1.43151421 30.8,2.397 L30.8,14.7956667 C30.8,15.7611525 30.0341853,16.5438333 29.089505,16.5438333 C28.1448246,16.5438333 27.3790099,15.7611525 27.3790099,14.7956667 L27.3790099,2.397 L27.3790099,2.397 Z" id="path-12"></path>
        <filter x="-50%" y="-50%" width="200%" height="200%" filterUnits="objectBoundingBox" id="filter-13">
            <feOffset dx="0" dy="2" in="SourceAlpha" result="shadowOffsetOuter1"></feOffset>
            <feGaussianBlur stdDeviation="1" in="shadowOffsetOuter1" result="shadowBlurOuter1"></feGaussianBlur>
            <feComposite in="shadowBlurOuter1" in2="SourceAlpha" operator="out" result="shadowBlurOuter1"></feComposite>
            <feColorMatrix values="0 0 0 0 0   0 0 0 0 0   0 0 0 0 0  0 0 0 0.24 0" type="matrix" in="shadowBlurOuter1" result="shadowMatrixOuter1"></feColorMatrix>
            <feOffset dx="0" dy="0" in="SourceAlpha" result="shadowOffsetOuter2"></feOffset>
            <feGaussianBlur stdDeviation="1" in="shadowOffsetOuter2" result="shadowBlurOuter2"></feGaussianBlur>
            <feComposite in="shadowBlurOuter2" in2="SourceAlpha" operator="out" result="shadowBlurOuter2"></feComposite>
            <feColorMatrix values="0 0 0 0 0   0 0 0 0 0   0 0 0 0 0  0 0 0 0.12 0" type="matrix" in="shadowBlurOuter2" result="shadowMatrixOuter2"></feColorMatrix>
            <feMerge>
                <feMergeNode in="shadowMatrixOuter1"></feMergeNode>
                <feMergeNode in="shadowMatrixOuter2"></feMergeNode>
            </feMerge>
        </filter>
        <mask id="mask-14" maskContentUnits="userSpaceOnUse" maskUnits="objectBoundingBox" x="0" y="0" width="3.4209901" height="15.895" fill="white">
            <use xlink:href="#path-12"></use>
        </mask>
        <mask id="mask-15" maskContentUnits="userSpaceOnUse" maskUnits="objectBoundingBox" x="0" y="0" width="3.4209901" height="15.895" fill="white">
            <use xlink:href="#path-12"></use>
        </mask>
        <path d="M40.8356436,15.3283333 C40.4752475,16.3313333 39.8154455,16.5466667 38.7508911,16.5466667 C37.6863366,16.5466667 37.0209901,16.3313333 36.6661386,15.334 L32.4578218,3.23 C32.3300587,2.90511823 32.2587578,2.55993892 32.2471287,2.21 C32.2471287,1.037 33.1231683,0.657333333 33.9770297,0.657333333 C34.8308911,0.657333333 35.3964356,1.13333333 35.7069307,2.18733333 L38.8118812,12.6253333 L38.8118812,12.6253333 L42.0443564,2.18733333 C42.3548515,1.13333333 42.8538614,0.651666667 43.6467327,0.651666667 C44.439604,0.651666667 45.3766337,1.037 45.3766337,2.20433333 C45.3647793,2.55424422 45.2934866,2.89938414 45.1659406,3.22433333 L40.8356436,15.3283333 Z" id="path-16"></path>
        <filter x="-50%" y="-50%" width="200%" height="200%" filterUnits="objectBoundingBox" id="filter-17">
            <feOffset dx="0" dy="2" in="SourceAlpha" result="shadowOffsetOuter1"></feOffset>
            <feGaussianBlur stdDeviation="1" in="shadowOffsetOuter1" result="shadowBlurOuter1"></feGaussianBlur>
            <feComposite in="shadowBlurOuter1" in2="SourceAlpha" operator="out" result="shadowBlurOuter1"></feComposite>
            <feColorMatrix values="0 0 0 0 0   0 0 0 0 0   0 0 0 0 0  0 0 0 0.24 0" type="matrix" in="shadowBlurOuter1" result="shadowMatrixOuter1"></feColorMatrix>
            <feOffset dx="0" dy="0" in="SourceAlpha" result="shadowOffsetOuter2"></feOffset>
            <feGaussianBlur stdDeviation="1" in="shadowOffsetOuter2" result="shadowBlurOuter2"></feGaussianBlur>
            <feComposite in="shadowBlurOuter2" in2="SourceAlpha" operator="out" result="shadowBlurOuter2"></feComposite>
            <feColorMatrix values="0 0 0 0 0   0 0 0 0 0   0 0 0 0 0  0 0 0 0.12 0" type="matrix" in="shadowBlurOuter2" result="shadowMatrixOuter2"></feColorMatrix>
            <feMerge>
                <feMergeNode in="shadowMatrixOuter1"></feMergeNode>
                <feMergeNode in="shadowMatrixOuter2"></feMergeNode>
            </feMerge>
        </filter>
        <mask id="mask-18" maskContentUnits="userSpaceOnUse" maskUnits="objectBoundingBox" x="0" y="0" width="13.129505" height="15.895" fill="white">
            <use xlink:href="#path-16"></use>
        </mask>
        <mask id="mask-19" maskContentUnits="userSpaceOnUse" maskUnits="objectBoundingBox" x="0" y="0" width="13.129505" height="15.895" fill="white">
            <use xlink:href="#path-16"></use>
        </mask>
        <linearGradient x1="50%" y1="0%" x2="50%" y2="100%" id="linearGradient-20">
            <stop stop-color="#000000" stop-opacity="0" offset="0%"></stop>
            <stop stop-color="#000000" stop-opacity="0.02" offset="79.9884407%"></stop>
            <stop stop-color="#000000" stop-opacity="0.04" offset="100%"></stop>
        </linearGradient>
        <linearGradient x1="50%" y1="0%" x2="50%" y2="100%" id="linearGradient-21">
            <stop stop-color="#FFFFFF" stop-opacity="0.12" offset="0%"></stop>
            <stop stop-color="#FFFFFF" stop-opacity="0.06" offset="21.6338489%"></stop>
            <stop stop-color="#FFFFFF" stop-opacity="0" offset="100%"></stop>
        </linearGradient>
        <path d="M54.8134653,7.36666667 C57.9405941,8.092 58.7334653,9.98466667 58.7334653,11.7753333 C58.7334653,14.5463333 56.6930693,16.609 52.5623762,16.609 C48.2265347,16.609 46.2859406,14.3933333 46.2859406,12.733 C46.2731876,12.3414215 46.420957,11.962179 46.6936025,11.6867564 C46.966248,11.4113338 47.3390145,11.2647385 47.7219802,11.2823333 C49.5794059,11.2823333 49.0970297,14.0533333 52.5568317,14.0533333 C54.3310891,14.0533333 55.3291089,13.0503333 55.3291089,12.0303333 C55.3291089,11.4126667 55.0352475,10.7326667 53.8708911,10.4323333 L49.989703,9.42933333 C46.8847525,8.619 46.3192079,6.87366667 46.3192079,5.23033333 C46.3192079,1.83033333 49.4019802,0.544 52.3017822,0.544 C54.9687129,0.544 58.1180198,2.07966667 58.1180198,4.12533333 C58.1077274,4.52908388 57.9332072,4.91017064 57.6364536,5.17689303 C57.3397001,5.44361542 56.9475824,5.5718235 56.5544554,5.53066667 C54.9687129,5.53066667 55.2625743,3.264 52.0744554,3.264 C50.4887129,3.264 49.6126733,4.012 49.6126733,5.07733333 C49.6126733,6.14266667 50.8657426,6.48266667 51.9469307,6.73766667 L54.8134653,7.36666667 Z" id="path-22"></path>
        <filter x="-50%" y="-50%" width="200%" height="200%" filterUnits="objectBoundingBox" id="filter-23">
            <feOffset dx="0" dy="2" in="SourceAlpha" result="shadowOffsetOuter1"></feOffset>
            <feGaussianBlur stdDeviation="1" in="shadowOffsetOuter1" result="shadowBlurOuter1"></feGaussianBlur>
            <feComposite in="shadowBlurOuter1" in2="SourceAlpha" operator="out" result="shadowBlurOuter1"></feComposite>
            <feColorMatrix values="0 0 0 0 0   0 0 0 0 0   0 0 0 0 0  0 0 0 0.24 0" type="matrix" in="shadowBlurOuter1" result="shadowMatrixOuter1"></feColorMatrix>
            <feOffset dx="0" dy="0" in="SourceAlpha" result="shadowOffsetOuter2"></feOffset>
            <feGaussianBlur stdDeviation="1" in="shadowOffsetOuter2" result="shadowBlurOuter2"></feGaussianBlur>
            <feComposite in="shadowBlurOuter2" in2="SourceAlpha" operator="out" result="shadowBlurOuter2"></feComposite>
            <feColorMatrix values="0 0 0 0 0   0 0 0 0 0   0 0 0 0 0  0 0 0 0.12 0" type="matrix" in="shadowBlurOuter2" result="shadowMatrixOuter2"></feColorMatrix>
            <feMerge>
                <feMergeNode in="shadowMatrixOuter1"></feMergeNode>
                <feMergeNode in="shadowMatrixOuter2"></feMergeNode>
            </feMerge>
        </filter>
        <mask id="mask-24" maskContentUnits="userSpaceOnUse" maskUnits="objectBoundingBox" x="0" y="0" width="12.4482869" height="16.065" fill="white">
            <use xlink:href="#path-22"></use>
        </mask>
        <mask id="mask-25" maskContentUnits="userSpaceOnUse" maskUnits="objectBoundingBox" x="0" y="0" width="12.4482869" height="16.065" fill="white">
            <use xlink:href="#path-22"></use>
        </mask>
        <path d="M60.8736634,2.38 C60.8736634,0.974666667 61.8106931,0.68 62.7310891,0.68 L63.7291089,0.68 C64.7936634,0.68 65.2926733,1.105 65.6475248,2.278 L68.630495,12.121 L68.6748515,12.121 L71.6134653,2.26666667 C71.9683168,1.09366667 72.4673267,0.668666667 73.5318812,0.668666667 L74.4910891,0.668666667 C75.4059406,0.668666667 76.3485149,0.986 76.3485149,2.36866667 L76.3485149,14.8353333 C76.3485149,15.708 75.9326733,16.5353333 74.8293069,16.5353333 C73.7259406,16.5353333 73.310099,15.7023333 73.310099,14.8353333 L73.310099,5.338 L73.2657426,5.338 L70.0776238,15.538 C69.8445824,16.1535662 69.2652195,16.5593627 68.6194059,16.5593627 C67.9735924,16.5593627 67.3942295,16.1535662 67.1611881,15.538 L63.9730693,5.338 L63.9287129,5.338 L63.9287129,14.841 C63.9287129,15.7136667 63.5128713,16.541 62.409505,16.541 C61.3061386,16.541 60.890297,15.708 60.890297,14.841 L60.890297,2.38 L60.8736634,2.38 Z" id="path-26"></path>
        <filter x="-50%" y="-50%" width="200%" height="200%" filterUnits="objectBoundingBox" id="filter-27">
            <feOffset dx="0" dy="2" in="SourceAlpha" result="shadowOffsetOuter1"></feOffset>
            <feGaussianBlur stdDeviation="1" in="shadowOffsetOuter1" result="shadowBlurOuter1"></feGaussianBlur>
            <feComposite in="shadowBlurOuter1" in2="SourceAlpha" operator="out" result="shadowBlurOuter1"></feComposite>
            <feColorMatrix values="0 0 0 0 0   0 0 0 0 0   0 0 0 0 0  0 0 0 0.24 0" type="matrix" in="shadowBlurOuter1" result="shadowMatrixOuter1"></feColorMatrix>
            <feOffset dx="0" dy="0" in="SourceAlpha" result="shadowOffsetOuter2"></feOffset>
            <feGaussianBlur stdDeviation="1" in="shadowOffsetOuter2" result="shadowBlurOuter2"></feGaussianBlur>
            <feComposite in="shadowBlurOuter2" in2="SourceAlpha" operator="out" result="shadowBlurOuter2"></feComposite>
            <feColorMatrix values="0 0 0 0 0   0 0 0 0 0   0 0 0 0 0  0 0 0 0.12 0" type="matrix" in="shadowBlurOuter2" result="shadowMatrixOuter2"></feColorMatrix>
            <feMerge>
                <feMergeNode in="shadowMatrixOuter1"></feMergeNode>
                <feMergeNode in="shadowMatrixOuter2"></feMergeNode>
            </feMerge>
        </filter>
        <mask id="mask-28" maskContentUnits="userSpaceOnUse" maskUnits="objectBoundingBox" x="0" y="0" width="15.4748515" height="15.8906961" fill="white">
            <use xlink:href="#path-26"></use>
        </mask>
        <mask id="mask-29" maskContentUnits="userSpaceOnUse" maskUnits="objectBoundingBox" x="0" y="0" width="15.4748515" height="15.8906961" fill="white">
            <use xlink:href="#path-26"></use>
        </mask>
        <path d="M82.5639604,1.7 C82.7987176,0.984783522 83.4951912,0.538714292 84.2273267,0.634666667 L85.0423762,0.634666667 C85.8843339,0.520037078 86.6755439,1.0721568 86.8776238,1.91533333 L91.0027723,13.6566667 C91.1767764,14.0854849 91.2888401,14.5378853 91.3354455,14.9996667 C91.3053338,15.8770486 90.58607,16.5639914 89.7275248,16.5353333 C89.059451,16.6160386 88.4235668,16.2209623 88.1861386,15.5776667 L87.3156436,13.0333333 L81.8154455,13.0333333 L80.9172277,15.589 C80.689901,16.269 80.2075248,16.5466667 79.3980198,16.5466667 C78.9818612,16.5842586 78.5699141,16.4376173 78.2666528,16.1439326 C77.9633914,15.8502479 77.7979468,15.4377308 77.8122772,15.011 C77.8587271,14.5491905 77.9707964,14.0967673 78.1449505,13.668 L82.5639604,1.7 Z M84.6265347,4.42566667 L84.5821782,4.42566667 L82.5584158,10.5853333 L86.5615842,10.5853333 L84.6265347,4.42566667 Z" id="path-30"></path>
        <filter x="-50%" y="-50%" width="200%" height="200%" filterUnits="objectBoundingBox" id="filter-31">
            <feOffset dx="0" dy="2" in="SourceAlpha" result="shadowOffsetOuter1"></feOffset>
            <feGaussianBlur stdDeviation="1" in="shadowOffsetOuter1" result="shadowBlurOuter1"></feGaussianBlur>
            <feComposite in="shadowBlurOuter1" in2="SourceAlpha" operator="out" result="shadowBlurOuter1"></feComposite>
            <feColorMatrix values="0 0 0 0 0   0 0 0 0 0   0 0 0 0 0  0 0 0 0.24 0" type="matrix" in="shadowBlurOuter1" result="shadowMatrixOuter1"></feColorMatrix>
            <feOffset dx="0" dy="0" in="SourceAlpha" result="shadowOffsetOuter2"></feOffset>
            <feGaussianBlur stdDeviation="1" in="shadowOffsetOuter2" result="shadowBlurOuter2"></feGaussianBlur>
            <feComposite in="shadowBlurOuter2" in2="SourceAlpha" operator="out" result="shadowBlurOuter2"></feComposite>
            <feColorMatrix values="0 0 0 0 0   0 0 0 0 0   0 0 0 0 0  0 0 0 0.12 0" type="matrix" in="shadowBlurOuter2" result="shadowMatrixOuter2"></feColorMatrix>
            <feMerge>
                <feMergeNode in="shadowMatrixOuter1"></feMergeNode>
                <feMergeNode in="shadowMatrixOuter2"></feMergeNode>
            </feMerge>
        </filter>
        <mask id="mask-32" maskContentUnits="userSpaceOnUse" maskUnits="objectBoundingBox" x="0" y="0" width="13.5240277" height="15.9328213" fill="white">
            <use xlink:href="#path-30"></use>
        </mask>
        <mask id="mask-33" maskContentUnits="userSpaceOnUse" maskUnits="objectBoundingBox" x="0" y="0" width="13.5240277" height="15.9328213" fill="white">
            <use xlink:href="#path-30"></use>
        </mask>
        <path d="M92.8213861,2.975 C92.8213861,1.42233333 93.6142574,0.929333333 94.8229703,0.929333333 L100.511683,0.929333333 C104.575842,0.929333333 105.662574,3.196 105.662574,5.19066667 C105.662574,6.851 104.703366,8.49433333 103.078812,8.874 L103.078812,8.91933333 C104.830891,9.17433333 105.141386,10.472 105.141386,12.0303333 C105.141386,13.7983333 105.601584,14.4613333 105.601584,15.181 C105.511444,16.0013073 104.804973,16.6034151 103.999208,16.5466667 C102.125149,16.5466667 101.975446,14.6936667 101.975446,14.076 C101.975446,11.39 101.498614,10.3076667 99.6190099,10.3076667 L96.2423762,10.3076667 L96.2423762,14.8013333 C96.2423762,15.7668191 95.4765615,16.5495 94.5318812,16.5495 C93.5872009,16.5495 92.8213861,15.7668191 92.8213861,14.8013333 L92.8213861,2.975 L92.8213861,2.975 Z M96.2423762,7.74633333 L99.6633663,7.74633333 C100.955248,7.74633333 102.247129,7.40633333 102.247129,5.678 C102.247129,3.94966667 101.265743,3.60966667 99.7687129,3.60966667 L96.2479208,3.60966667 L96.2479208,7.74066667 L96.2423762,7.74633333 Z" id="path-34"></path>
        <filter x="-50%" y="-50%" width="200%" height="200%" filterUnits="objectBoundingBox" id="filter-35">
            <feOffset dx="0" dy="2" in="SourceAlpha" result="shadowOffsetOuter1"></feOffset>
            <feGaussianBlur stdDeviation="1" in="shadowOffsetOuter1" result="shadowBlurOuter1"></feGaussianBlur>
            <feComposite in="shadowBlurOuter1" in2="SourceAlpha" operator="out" result="shadowBlurOuter1"></feComposite>
            <feColorMatrix values="0 0 0 0 0   0 0 0 0 0   0 0 0 0 0  0 0 0 0.24 0" type="matrix" in="shadowBlurOuter1" result="shadowMatrixOuter1"></feColorMatrix>
            <feOffset dx="0" dy="0" in="SourceAlpha" result="shadowOffsetOuter2"></feOffset>
            <feGaussianBlur stdDeviation="1" in="shadowOffsetOuter2" result="shadowBlurOuter2"></feGaussianBlur>
            <feComposite in="shadowBlurOuter2" in2="SourceAlpha" operator="out" result="shadowBlurOuter2"></feComposite>
            <feColorMatrix values="0 0 0 0 0   0 0 0 0 0   0 0 0 0 0  0 0 0 0.12 0" type="matrix" in="shadowBlurOuter2" result="shadowMatrixOuter2"></feColorMatrix>
            <feMerge>
                <feMergeNode in="shadowMatrixOuter1"></feMergeNode>
                <feMergeNode in="shadowMatrixOuter2"></feMergeNode>
            </feMerge>
        </filter>
        <mask id="mask-36" maskContentUnits="userSpaceOnUse" maskUnits="objectBoundingBox" x="0" y="0" width="12.8411881" height="15.6210352" fill="white">
            <use xlink:href="#path-34"></use>
        </mask>
        <mask id="mask-37" maskContentUnits="userSpaceOnUse" maskUnits="objectBoundingBox" x="0" y="0" width="12.8411881" height="15.6210352" fill="white">
            <use xlink:href="#path-34"></use>
        </mask>
        <path d="M111.689505,3.87033333 L108.45703,3.87033333 C107.475644,3.87033333 106.682772,3.36033333 106.682772,2.40266667 C106.682772,1.445 107.475644,0.935 108.45703,0.935 L118.337426,0.935 C119.318812,0.935 120.111683,1.445 120.111683,2.40266667 C120.111683,3.36033333 119.318812,3.87033333 118.337426,3.87033333 L115.10495,3.87033333 L115.10495,14.7956667 C115.10495,15.7611525 114.339136,16.5438333 113.394455,16.5438333 C112.449775,16.5438333 111.68396,15.7611525 111.68396,14.7956667 L111.68396,3.87033333 L111.689505,3.87033333 Z" id="path-38"></path>
        <filter x="-50%" y="-50%" width="200%" height="200%" filterUnits="objectBoundingBox" id="filter-39">
            <feOffset dx="0" dy="2" in="SourceAlpha" result="shadowOffsetOuter1"></feOffset>
            <feGaussianBlur stdDeviation="1" in="shadowOffsetOuter1" result="shadowBlurOuter1"></feGaussianBlur>
            <feComposite in="shadowBlurOuter1" in2="SourceAlpha" operator="out" result="shadowBlurOuter1"></feComposite>
            <feColorMatrix values="0 0 0 0 0   0 0 0 0 0   0 0 0 0 0  0 0 0 0.24 0" type="matrix" in="shadowBlurOuter1" result="shadowMatrixOuter1"></feColorMatrix>
            <feOffset dx="0" dy="0" in="SourceAlpha" result="shadowOffsetOuter2"></feOffset>
            <feGaussianBlur stdDeviation="1" in="shadowOffsetOuter2" result="shadowBlurOuter2"></feGaussianBlur>
            <feComposite in="shadowBlurOuter2" in2="SourceAlpha" operator="out" result="shadowBlurOuter2"></feComposite>
            <feColorMatrix values="0 0 0 0 0   0 0 0 0 0   0 0 0 0 0  0 0 0 0.12 0" type="matrix" in="shadowBlurOuter2" result="shadowMatrixOuter2"></feColorMatrix>
            <feMerge>
                <feMergeNode in="shadowMatrixOuter1"></feMergeNode>
                <feMergeNode in="shadowMatrixOuter2"></feMergeNode>
            </feMerge>
        </filter>
        <mask id="mask-40" maskContentUnits="userSpaceOnUse" maskUnits="objectBoundingBox" x="0" y="0" width="13.4289109" height="15.6088333" fill="white">
            <use xlink:href="#path-38"></use>
        </mask>
        <mask id="mask-41" maskContentUnits="userSpaceOnUse" maskUnits="objectBoundingBox" x="0" y="0" width="13.4289109" height="15.6088333" fill="white">
            <use xlink:href="#path-38"></use>
        </mask>
        <path d="M127.874059,0.566666667 C131.794059,0.566666667 133.939802,3.08266667 133.939802,4.573 C133.986062,5.00356929 133.8386,5.43232516 133.538911,5.73861358 C133.239223,6.044902 132.819707,6.19561211 132.398416,6.14833333 C130.41901,6.14833333 131.001188,3.37733333 127.874059,3.37733333 C125.728317,3.37733333 123.954059,5.27566667 123.954059,8.59633333 C123.954059,11.39 125.06297,13.8153333 127.99604,13.8153333 C130.685149,13.8153333 130.624158,10.8743333 132.270891,10.8743333 C133.102574,10.8743333 133.934257,11.3616667 133.934257,12.2173333 C133.934257,14.433 131.306139,16.626 127.99604,16.626 C123.305347,16.626 120.533069,13.8776667 120.533069,8.59633333 C120.533069,4.27266667 123.033663,0.566666667 127.874059,0.566666667 L127.874059,0.566666667 Z" id="path-42"></path>
        <filter x="-50%" y="-50%" width="200%" height="200%" filterUnits="objectBoundingBox" id="filter-43">
            <feOffset dx="0" dy="2" in="SourceAlpha" result="shadowOffsetOuter1"></feOffset>
            <feGaussianBlur stdDeviation="1" in="shadowOffsetOuter1" result="shadowBlurOuter1"></feGaussianBlur>
            <feComposite in="shadowBlurOuter1" in2="SourceAlpha" operator="out" result="shadowBlurOuter1"></feComposite>
            <feColorMatrix values="0 0 0 0 0   0 0 0 0 0   0 0 0 0 0  0 0 0 0.24 0" type="matrix" in="shadowBlurOuter1" result="shadowMatrixOuter1"></feColorMatrix>
            <feOffset dx="0" dy="0" in="SourceAlpha" result="shadowOffsetOuter2"></feOffset>
            <feGaussianBlur stdDeviation="1" in="shadowOffsetOuter2" result="shadowBlurOuter2"></feGaussianBlur>
            <feComposite in="shadowBlurOuter2" in2="SourceAlpha" operator="out" result="shadowBlurOuter2"></feComposite>
            <feColorMatrix values="0 0 0 0 0   0 0 0 0 0   0 0 0 0 0  0 0 0 0.12 0" type="matrix" in="shadowBlurOuter2" result="shadowMatrixOuter2"></feColorMatrix>
            <feMerge>
                <feMergeNode in="shadowMatrixOuter1"></feMergeNode>
                <feMergeNode in="shadowMatrixOuter2"></feMergeNode>
            </feMerge>
        </filter>
        <mask id="mask-44" maskContentUnits="userSpaceOnUse" maskUnits="objectBoundingBox" x="0" y="0" width="13.4150897" height="16.0593333" fill="white">
            <use xlink:href="#path-42"></use>
        </mask>
        <mask id="mask-45" maskContentUnits="userSpaceOnUse" maskUnits="objectBoundingBox" x="0" y="0" width="13.4150897" height="16.0593333" fill="white">
            <use xlink:href="#path-42"></use>
        </mask>
        <path d="M135.941386,2.397 C135.941386,1.43151421 136.707201,0.648833333 137.651881,0.648833333 C138.596562,0.648833333 139.362376,1.43151421 139.362376,2.397 L139.362376,14.7956667 C139.362376,15.7611525 138.596562,16.5438333 137.651881,16.5438333 C136.707201,16.5438333 135.941386,15.7611525 135.941386,14.7956667 L135.941386,2.397 L135.941386,2.397 Z" id="path-46"></path>
        <filter x="-50%" y="-50%" width="200%" height="200%" filterUnits="objectBoundingBox" id="filter-47">
            <feOffset dx="0" dy="2" in="SourceAlpha" result="shadowOffsetOuter1"></feOffset>
            <feGaussianBlur stdDeviation="1" in="shadowOffsetOuter1" result="shadowBlurOuter1"></feGaussianBlur>
            <feComposite in="shadowBlurOuter1" in2="SourceAlpha" operator="out" result="shadowBlurOuter1"></feComposite>
            <feColorMatrix values="0 0 0 0 0   0 0 0 0 0   0 0 0 0 0  0 0 0 0.24 0" type="matrix" in="shadowBlurOuter1" result="shadowMatrixOuter1"></feColorMatrix>
            <feOffset dx="0" dy="0" in="SourceAlpha" result="shadowOffsetOuter2"></feOffset>
            <feGaussianBlur stdDeviation="1" in="shadowOffsetOuter2" result="shadowBlurOuter2"></feGaussianBlur>
            <feComposite in="shadowBlurOuter2" in2="SourceAlpha" operator="out" result="shadowBlurOuter2"></feComposite>
            <feColorMatrix values="0 0 0 0 0   0 0 0 0 0   0 0 0 0 0  0 0 0 0.12 0" type="matrix" in="shadowBlurOuter2" result="shadowMatrixOuter2"></feColorMatrix>
            <feMerge>
                <feMergeNode in="shadowMatrixOuter1"></feMergeNode>
                <feMergeNode in="shadowMatrixOuter2"></feMergeNode>
            </feMerge>
        </filter>
        <mask id="mask-48" maskContentUnits="userSpaceOnUse" maskUnits="objectBoundingBox" x="0" y="0" width="3.4209901" height="15.895" fill="white">
            <use xlink:href="#path-46"></use>
        </mask>
        <mask id="mask-49" maskContentUnits="userSpaceOnUse" maskUnits="objectBoundingBox" x="0" y="0" width="3.4209901" height="15.895" fill="white">
            <use xlink:href="#path-46"></use>
        </mask>
        <path d="M145.821782,3.87033333 L142.589307,3.87033333 C141.607921,3.87033333 140.81505,3.36033333 140.81505,2.40266667 C140.81505,1.445 141.607921,0.935 142.589307,0.935 L152.475248,0.935 C153.456634,0.935 154.249505,1.445 154.249505,2.40266667 C154.249505,3.36033333 153.456634,3.87033333 152.475248,3.87033333 L149.259406,3.87033333 L149.259406,14.7956667 C149.259406,15.7611525 148.493591,16.5438333 147.548911,16.5438333 C146.604231,16.5438333 145.838416,15.7611525 145.838416,14.7956667 L145.838416,3.87033333 L145.821782,3.87033333 Z" id="path-50"></path>
        <filter x="-50%" y="-50%" width="200%" height="200%" filterUnits="objectBoundingBox" id="filter-51">
            <feOffset dx="0" dy="2" in="SourceAlpha" result="shadowOffsetOuter1"></feOffset>
            <feGaussianBlur stdDeviation="1" in="shadowOffsetOuter1" result="shadowBlurOuter1"></feGaussianBlur>
            <feComposite in="shadowBlurOuter1" in2="SourceAlpha" operator="out" result="shadowBlurOuter1"></feComposite>
            <feColorMatrix values="0 0 0 0 0   0 0 0 0 0   0 0 0 0 0  0 0 0 0.24 0" type="matrix" in="shadowBlurOuter1" result="shadowMatrixOuter1"></feColorMatrix>
            <feOffset dx="0" dy="0" in="SourceAlpha" result="shadowOffsetOuter2"></feOffset>
            <feGaussianBlur stdDeviation="1" in="shadowOffsetOuter2" result="shadowBlurOuter2"></feGaussianBlur>
            <feComposite in="shadowBlurOuter2" in2="SourceAlpha" operator="out" result="shadowBlurOuter2"></feComposite>
            <feColorMatrix values="0 0 0 0 0   0 0 0 0 0   0 0 0 0 0  0 0 0 0.12 0" type="matrix" in="shadowBlurOuter2" result="shadowMatrixOuter2"></feColorMatrix>
            <feMerge>
                <feMergeNode in="shadowMatrixOuter1"></feMergeNode>
                <feMergeNode in="shadowMatrixOuter2"></feMergeNode>
            </feMerge>
        </filter>
        <mask id="mask-52" maskContentUnits="userSpaceOnUse" maskUnits="objectBoundingBox" x="0" y="0" width="13.4344554" height="15.6088333" fill="white">
            <use xlink:href="#path-50"></use>
        </mask>
        <mask id="mask-53" maskContentUnits="userSpaceOnUse" maskUnits="objectBoundingBox" x="0" y="0" width="13.4344554" height="15.6088333" fill="white">
            <use xlink:href="#path-50"></use>
        </mask>
        <path d="M159.616634,10.2793333 L155.42495,3.16766667 C155.251888,2.89901425 155.152337,2.58791593 155.136634,2.26666667 C155.146198,1.81438794 155.336532,1.38583299 155.663344,1.08072794 C155.990156,0.775622889 156.424945,0.620575813 156.866535,0.651666667 C157.550815,0.613597939 158.178047,1.04019337 158.407921,1.7 L161.390891,7.30433333 L164.346139,1.7 C164.739802,0.935 165.116832,0.68 165.826535,0.68 C166.254915,0.664734306 166.671527,0.824911222 166.983847,1.12495715 C167.296166,1.42500307 167.478337,1.84007866 167.489901,2.278 C167.475509,2.6056286 167.373905,2.92303117 167.19604,3.196 L163.009901,10.2793333 L163.009901,14.8126667 C163.009901,15.7781525 162.244086,16.5608333 161.299406,16.5608333 C160.354726,16.5608333 159.588911,15.7781525 159.588911,14.8126667 L159.588911,10.2793333 L159.616634,10.2793333 Z" id="path-54"></path>
        <filter x="-50%" y="-50%" width="200%" height="200%" filterUnits="objectBoundingBox" id="filter-55">
            <feOffset dx="0" dy="2" in="SourceAlpha" result="shadowOffsetOuter1"></feOffset>
            <feGaussianBlur stdDeviation="1" in="shadowOffsetOuter1" result="shadowBlurOuter1"></feGaussianBlur>
            <feComposite in="shadowBlurOuter1" in2="SourceAlpha" operator="out" result="shadowBlurOuter1"></feComposite>
            <feColorMatrix values="0 0 0 0 0   0 0 0 0 0   0 0 0 0 0  0 0 0 0.24 0" type="matrix" in="shadowBlurOuter1" result="shadowMatrixOuter1"></feColorMatrix>
            <feOffset dx="0" dy="0" in="SourceAlpha" result="shadowOffsetOuter2"></feOffset>
            <feGaussianBlur stdDeviation="1" in="shadowOffsetOuter2" result="shadowBlurOuter2"></feGaussianBlur>
            <feComposite in="shadowBlurOuter2" in2="SourceAlpha" operator="out" result="shadowBlurOuter2"></feComposite>
            <feColorMatrix values="0 0 0 0 0   0 0 0 0 0   0 0 0 0 0  0 0 0 0.12 0" type="matrix" in="shadowBlurOuter2" result="shadowMatrixOuter2"></feColorMatrix>
            <feMerge>
                <feMergeNode in="shadowMatrixOuter1"></feMergeNode>
                <feMergeNode in="shadowMatrixOuter2"></feMergeNode>
            </feMerge>
        </filter>
        <mask id="mask-56" maskContentUnits="userSpaceOnUse" maskUnits="objectBoundingBox" x="0" y="0" width="12.3532673" height="15.9130828" fill="white">
            <use xlink:href="#path-54"></use>
        </mask>
        <mask id="mask-57" maskContentUnits="userSpaceOnUse" maskUnits="objectBoundingBox" x="0" y="0" width="12.3532673" height="15.9130828" fill="white">
            <use xlink:href="#path-54"></use>
        </mask>
    </defs>
    <g id="Desktop-Landscape" stroke="none" stroke-width="1" fill="none" fill-rule="evenodd">
        <g id="Main-screen-resting-Desktop-Landscape" transform="translate(-69.000000, -22.000000)">
            <g id="header">
                <g id="KSC_logo_CMYK_white" transform="translate(72.000000, 24.000000)">
                    <g filter="url(#filter-1)" id="Layer_1">
                        <g>
                            <g id="Group">
                                <g id="Shape">
                                    <use fill="black" fill-opacity="1" filter="url(#filter-5)" xlink:href="#path-4"></use>
                                    <use stroke="url(#linearGradient-2)" mask="url(#mask-6)" stroke-width="1" fill="#FFFFFF" fill-rule="evenodd" xlink:href="#path-4"></use>
                                    <use stroke="url(#linearGradient-3)" mask="url(#mask-7)" stroke-width="1" xlink:href="#path-4"></use>
                                </g>
                                <g id="Shape">
                                    <use fill="black" fill-opacity="1" filter="url(#filter-9)" xlink:href="#path-8"></use>
                                    <use stroke="url(#linearGradient-2)" mask="url(#mask-10)" stroke-width="1" fill="#FFFFFF" fill-rule="evenodd" xlink:href="#path-8"></use>
                                    <use stroke="url(#linearGradient-3)" mask="url(#mask-11)" stroke-width="1" xlink:href="#path-8"></use>
                                </g>
                                <g id="Shape">
                                    <use fill="black" fill-opacity="1" filter="url(#filter-13)" xlink:href="#path-12"></use>
                                    <use stroke="url(#linearGradient-2)" mask="url(#mask-14)" stroke-width="1" fill="#FFFFFF" fill-rule="evenodd" xlink:href="#path-12"></use>
                                    <use stroke="url(#linearGradient-3)" mask="url(#mask-15)" stroke-width="1" xlink:href="#path-12"></use>
                                </g>
                                <g id="Shape">
                                    <use fill="black" fill-opacity="1" filter="url(#filter-17)" xlink:href="#path-16"></use>
                                    <use stroke="url(#linearGradient-2)" mask="url(#mask-18)" stroke-width="1" fill="#FFFFFF" fill-rule="evenodd" xlink:href="#path-16"></use>
                                    <use stroke="url(#linearGradient-3)" mask="url(#mask-19)" stroke-width="1" xlink:href="#path-16"></use>
                                </g>
                                <g id="Shape">
                                    <use fill="black" fill-opacity="1" filter="url(#filter-23)" xlink:href="#path-22"></use>
                                    <use stroke="url(#linearGradient-20)" mask="url(#mask-24)" stroke-width="1" fill="#00BCD4" fill-rule="evenodd" xlink:href="#path-22"></use>
                                    <use stroke="url(#linearGradient-21)" mask="url(#mask-25)" stroke-width="1" xlink:href="#path-22"></use>
                                </g>
                                <g id="Shape">
                                    <use fill="black" fill-opacity="1" filter="url(#filter-27)" xlink:href="#path-26"></use>
                                    <use stroke="url(#linearGradient-20)" mask="url(#mask-28)" stroke-width="1" fill="#00BCD4" fill-rule="evenodd" xlink:href="#path-26"></use>
                                    <use stroke="url(#linearGradient-21)" mask="url(#mask-29)" stroke-width="1" xlink:href="#path-26"></use>
                                </g>
                                <g id="Shape">
                                    <use fill="black" fill-opacity="1" filter="url(#filter-31)" xlink:href="#path-30"></use>
                                    <use stroke="url(#linearGradient-20)" mask="url(#mask-32)" stroke-width="1" fill="#00BCD4" fill-rule="evenodd" xlink:href="#path-30"></use>
                                    <use stroke="url(#linearGradient-21)" mask="url(#mask-33)" stroke-width="1" xlink:href="#path-30"></use>
                                </g>
                                <g id="Shape">
                                    <use fill="black" fill-opacity="1" filter="url(#filter-35)" xlink:href="#path-34"></use>
                                    <use stroke="url(#linearGradient-20)" mask="url(#mask-36)" stroke-width="1" fill="#00BCD4" fill-rule="evenodd" xlink:href="#path-34"></use>
                                    <use stroke="url(#linearGradient-21)" mask="url(#mask-37)" stroke-width="1" xlink:href="#path-34"></use>
                                </g>
                                <g id="Shape">
                                    <use fill="black" fill-opacity="1" filter="url(#filter-39)" xlink:href="#path-38"></use>
                                    <use stroke="url(#linearGradient-20)" mask="url(#mask-40)" stroke-width="1" fill="#00BCD4" fill-rule="evenodd" xlink:href="#path-38"></use>
                                    <use stroke="url(#linearGradient-21)" mask="url(#mask-41)" stroke-width="1" xlink:href="#path-38"></use>
                                </g>
                                <g id="Shape">
                                    <use fill="black" fill-opacity="1" filter="url(#filter-43)" xlink:href="#path-42"></use>
                                    <use stroke="url(#linearGradient-2)" mask="url(#mask-44)" stroke-width="1" fill="#FFFFFF" fill-rule="evenodd" xlink:href="#path-42"></use>
                                    <use stroke="url(#linearGradient-3)" mask="url(#mask-45)" stroke-width="1" xlink:href="#path-42"></use>
                                </g>
                                <g id="Shape">
                                    <use fill="black" fill-opacity="1" filter="url(#filter-47)" xlink:href="#path-46"></use>
                                    <use stroke="url(#linearGradient-2)" mask="url(#mask-48)" stroke-width="1" fill="#FFFFFF" fill-rule="evenodd" xlink:href="#path-46"></use>
                                    <use stroke="url(#linearGradient-3)" mask="url(#mask-49)" stroke-width="1" xlink:href="#path-46"></use>
                                </g>
                                <g id="Shape">
                                    <use fill="black" fill-opacity="1" filter="url(#filter-51)" xlink:href="#path-50"></use>
                                    <use stroke="url(#linearGradient-2)" mask="url(#mask-52)" stroke-width="1" fill="#FFFFFF" fill-rule="evenodd" xlink:href="#path-50"></use>
                                    <use stroke="url(#linearGradient-3)" mask="url(#mask-53)" stroke-width="1" xlink:href="#path-50"></use>
                                </g>
                                <g id="Shape">
                                    <use fill="black" fill-opacity="1" filter="url(#filter-55)" xlink:href="#path-54"></use>
                                    <use stroke="url(#linearGradient-2)" mask="url(#mask-56)" stroke-width="1" fill="#FFFFFF" fill-rule="evenodd" xlink:href="#path-54"></use>
                                    <use stroke="url(#linearGradient-3)" mask="url(#mask-57)" stroke-width="1" xlink:href="#path-54"></use>
                                </g>
                            </g>
                        </g>
                    </g>
                </g>
            </g>
        </g>
    </g>
</svg>