<?xml version="1.0" encoding="UTF-8" standalone="no"?>
<svg width="15px" height="23px" viewBox="0 0 15 23" version="1.1" xmlns="http://www.w3.org/2000/svg" xmlns:xlink="http://www.w3.org/1999/xlink">
    <!-- Generator: sketchtool 3.8.3 (29802) - http://www.bohemiancoding.com/sketch -->
    <title>82591413-3DAA-4C45-92FD-151801D1F632</title>
    <desc>Created with sketchtool.</desc>
    <defs></defs>
    <g id="Desktop-Landscape" stroke="none" stroke-width="1" fill="none" fill-rule="evenodd">
        <g id="Main-screen-tooltip-and-hover-Desktop-Landscape" transform="translate(-1181.000000, -599.000000)">
            <g id="fab-mini" transform="translate(1168.000000, 590.000000)">
                <g id="Material/Icons/Black/message-pin/active" transform="translate(8.000000, 8.000000)">
                    <rect id="24x24" x="0" y="0" width="24" height="24"></rect>
                    <path d="M20,8.24607817 C20,12.2479434 12.5000234,24.0000007 12.5000234,24.0000007 C12.5000234,24.0000007 5,12.2482584 5,8.24607817 C5,4.2452686 8.35826263,1 12.5000234,1 C16.641045,1.00035097 20,4.24525521 20,8.24607817 L20,8.24607817 Z M18.3009347,8.24607817 C18.3009347,5.15441116 15.6989655,2.64018759 12.500022,2.64018759 C9.30032083,2.64018759 6.69687764,5.15441098 6.69687764,8.24607817 C6.69687764,11.3356429 9.30030223,13.8526875 12.500022,13.8526875 C15.6989513,13.8526875 18.3009347,11.3359665 18.3009347,8.24607817 Z M15.3543769,5 C15.5414096,5 15.703688,5.06846618 15.8412119,5.2053991 C15.9787358,5.34233174 16.0474979,5.50391237 16.0474979,5.69014072 L16.0474979,9.89671357 C16.0474979,10.0829422 15.9787358,10.2472613 15.8412119,10.3896715 C15.703688,10.5320813 15.5414096,10.6032863 15.3543769,10.6032863 L10.4200165,10.6032863 L9.01727185,12 L9.01727185,5.69014072 C9.01727185,5.50391237 9.08603395,5.34233174 9.22355786,5.2053991 C9.36108177,5.06846618 9.5233601,5 9.71039285,5 L15.3543769,5 Z" id="message-pin" fill-opacity="0.54" fill="#000000" fill-rule="evenodd"></path>
                </g>
            </g>
        </g>
    </g>
</svg>