<svg xmlns="http://www.w3.org/2000/svg" width="20" height="24" viewBox="0 0 20 24">
  <g fill="none" fill-rule="evenodd" transform="translate(-2)">
    <rect width="24" height="24"/>
    <path fill="#0097A7" d="M8,10 L16,10 L16,30 L8,30 L8,10 Z M14.6666667,28.75 L14.6666667,11.25 L9.33333333,11.25 L9.33333333,13.125 L10.6666667,13.125 L10.6666667,14.375 L9.33333333,14.375 L9.33333333,15.625 L12,15.625 L12,16.875 L9.33333333,16.875 L9.33333333,18.125 L10.6666667,18.125 L10.6666667,19.375 L9.33333333,19.375 L9.33333333,20.625 L12,20.625 L12,21.875 L9.33333333,21.875 L9.33333333,23.125 L10.6666667,23.125 L10.6666667,24.375 L9.33333333,24.375 L9.33333333,25.625 L12,25.625 L12,26.875 L9.33333333,26.875 L9.33333333,28.75 L14.6666667,28.75 Z" transform="rotate(-90 12 20)"/>
    <path fill="#0097A7" d="M22,3.5 L20.3333203,3.5 L20.3333203,10.5 L22,10.5 L22,14 L17,14 L17,12.8333242 L7,12.8333242 L7,14 L2,14 L2,10.5 L3.66667969,10.5 L3.66667969,3.5 L2,3.5 L2,0 L7,0 L7,1.16667578 L17,1.16667578 L17,0 L22,0 L22,3.5 L22,3.5 Z M18.6666794,1.16667556 L18.6666794,2.33332403 L20.33332,2.33332403 L20.33332,1.16667556 L18.6666794,1.16667556 L18.6666794,1.16667556 Z M3.66667969,1.16667556 L3.66667969,2.33332403 L5.33332031,2.33332403 L5.33332031,1.16667556 L3.66667969,1.16667556 L3.66667969,1.16667556 Z M5.33332031,12.8333242 L5.33332031,11.6666758 L3.66667969,11.6666758 L3.66667969,12.8333242 L5.33332031,12.8333242 L5.33332031,12.8333242 Z M20.3333206,12.8333242 L20.3333206,11.6666758 L18.66668,11.6666758 L18.66668,12.8333242 L20.3333206,12.8333242 L20.3333206,12.8333242 Z M18.6666794,10.5 L18.6666794,3.5 L16.9999997,3.5 L16.9999997,2.33332422 L6.99999969,2.33332422 L6.99999969,3.5 L5.33332004,3.5 L5.33332004,10.5 L6.99999969,10.5 L6.99999969,11.6666758 L16.9999997,11.6666758 L16.9999997,10.5 L18.6666794,10.5 Z M12.8387385,3.66998291 L12.8387385,6.16998291 L15.3399982,6.16998291 L15.3399982,7.83662357 L12.8387385,7.83662357 L12.8387385,10.3366236 L11.171258,10.3366236 L11.171258,7.83662357 L8.66999817,7.83662357 L8.66999817,6.16998291 L11.171258,6.16998291 L11.171258,3.66998291 L12.8387385,3.66998291 Z"/>
  </g>
</svg>
