<?xml version="1.0" encoding="UTF-8" standalone="no"?>
<svg width="20px" height="22px" viewBox="0 0 20 22" version="1.1" xmlns="http://www.w3.org/2000/svg" xmlns:xlink="http://www.w3.org/1999/xlink">
    <!-- Generator: sketchtool 3.8.3 (29802) - http://www.bohemiancoding.com/sketch -->
    <title>36B4D378-F265-4D12-B6CF-91C566470156</title>
    <desc>Created with sketchtool.</desc>
    <defs>
        <rect id="path-1" x="0" y="0" width="16" height="16" rx="2"></rect>
        <filter x="-50%" y="-50%" width="200%" height="200%" filterUnits="objectBoundingBox" id="filter-2">
            <feOffset dx="0" dy="2" in="SourceAlpha" result="shadowOffsetOuter1"></feOffset>
            <feGaussianBlur stdDeviation="1" in="shadowOffsetOuter1" result="shadowBlurOuter1"></feGaussianBlur>
            <feColorMatrix values="0 0 0 0 0   0 0 0 0 0   0 0 0 0 0  0 0 0 0.24 0" type="matrix" in="shadowBlurOuter1" result="shadowMatrixOuter1"></feColorMatrix>
            <feOffset dx="0" dy="0" in="SourceAlpha" result="shadowOffsetOuter2"></feOffset>
            <feGaussianBlur stdDeviation="1" in="shadowOffsetOuter2" result="shadowBlurOuter2"></feGaussianBlur>
            <feColorMatrix values="0 0 0 0 0   0 0 0 0 0   0 0 0 0 0  0 0 0 0.12 0" type="matrix" in="shadowBlurOuter2" result="shadowMatrixOuter2"></feColorMatrix>
            <feMerge>
                <feMergeNode in="shadowMatrixOuter1"></feMergeNode>
                <feMergeNode in="shadowMatrixOuter2"></feMergeNode>
            </feMerge>
        </filter>
    </defs>
    <g id="Desktop-Landscape" stroke="none" stroke-width="1" fill="none" fill-rule="evenodd">
        <g id="Main-screen-resting-Desktop-Landscape" transform="translate(-630.000000, -828.000000)">
            <g id="footer" transform="translate(0.000000, 826.000000)">
                <g id="social-icon" transform="translate(600.000000, 4.000000)">
                    <g id="Material/Icons/Custom-color/google+/active" transform="translate(32.000000, 0.000000)">
                        <g id="24x24">
                            <use fill="black" fill-opacity="1" filter="url(#filter-2)" xlink:href="#path-1"></use>
                            <use fill="#FFFFFF" fill-rule="evenodd" xlink:href="#path-1"></use>
                        </g>
                        <path d="M7.36,5.52 C7.36,4.72 6.88,3.12 5.68,3.12 C5.2,3.12 4.64,3.44 4.64,4.48 C4.64,5.44 5.12,6.8 6.24,6.8 C6.24,6.8 7.36,6.72 7.36,5.52 L7.36,5.52 Z M6.88,9.44 L6.64,9.44 L6.64,9.44 C6.4,9.44 5.68,9.52 5.2,9.68 C4.64,9.84 4,10.24 4,11.04 C4,11.92 4.8,12.8 6.4,12.8 C7.6,12.8 8.32,12 8.32,11.2 C8.32,10.64 7.92,10.24 6.88,9.44 L6.88,9.44 Z M14.4,0 L1.6,0 C0.72,0 0,0.72 0,1.6 L0,14.4 C0,15.28 0.72,16 1.6,16 L14.4,16 C15.28,16 16,15.28 16,14.4 L16,1.6 C16,0.72 15.28,0 14.4,0 L14.4,0 Z M5.68,13.76 C3.44,13.76 2.4,12.48 2.4,11.36 C2.4,10.96 2.48,10.08 3.6,9.44 C4.24,9.04 5.04,8.8 6.08,8.72 C5.92,8.56 5.84,8.32 5.84,7.92 C5.84,7.76 5.84,7.68 5.92,7.52 L5.6,7.52 C4,7.52 3.04,6.32 3.04,5.12 C3.04,3.76 4.08,2.24 6.32,2.24 L9.68,2.24 L9.44,2.48 L8.88,3.04 L8.8,3.12 L8.24,3.12 C8.56,3.44 8.96,4 8.96,4.88 C8.96,6 8.4,6.56 7.68,7.04 C7.52,7.12 7.36,7.36 7.36,7.6 C7.36,7.84 7.52,8 7.68,8.08 C7.76,8.16 7.92,8.24 8.08,8.32 C8.72,8.8 9.6,9.36 9.6,10.64 C9.6,12.08 8.56,13.76 5.68,13.76 L5.68,13.76 Z M13.6,8 L12,8 L12,9.6 L11.2,9.6 L11.2,8 L9.6,8 L9.6,7.2 L11.2,7.2 L11.2,5.6 L12,5.6 L12,7.2 L13.6,7.2 L13.6,8 L13.6,8 Z" id="google+" fill="#DB4437" fill-rule="evenodd"></path>
                    </g>
                </g>
            </g>
        </g>
    </g>
</svg>