<?xml version="1.0" encoding="UTF-8" standalone="no"?>
<svg width="20px" height="22px" viewBox="0 0 20 22" version="1.1" xmlns="http://www.w3.org/2000/svg" xmlns:xlink="http://www.w3.org/1999/xlink">
    <!-- Generator: sketchtool 3.8.3 (29802) - http://www.bohemiancoding.com/sketch -->
    <title>2209B5BA-8021-4469-A582-6D7964DA00D4</title>
    <desc>Created with sketchtool.</desc>
    <defs>
        <rect id="path-1" x="0" y="0" width="16" height="16" rx="2"></rect>
        <filter x="-50%" y="-50%" width="200%" height="200%" filterUnits="objectBoundingBox" id="filter-2">
            <feOffset dx="0" dy="2" in="SourceAlpha" result="shadowOffsetOuter1"></feOffset>
            <feGaussianBlur stdDeviation="1" in="shadowOffsetOuter1" result="shadowBlurOuter1"></feGaussianBlur>
            <feColorMatrix values="0 0 0 0 0   0 0 0 0 0   0 0 0 0 0  0 0 0 0.24 0" type="matrix" in="shadowBlurOuter1" result="shadowMatrixOuter1"></feColorMatrix>
            <feOffset dx="0" dy="0" in="SourceAlpha" result="shadowOffsetOuter2"></feOffset>
            <feGaussianBlur stdDeviation="1" in="shadowOffsetOuter2" result="shadowBlurOuter2"></feGaussianBlur>
            <feColorMatrix values="0 0 0 0 0   0 0 0 0 0   0 0 0 0 0  0 0 0 0.12 0" type="matrix" in="shadowBlurOuter2" result="shadowMatrixOuter2"></feColorMatrix>
            <feMerge>
                <feMergeNode in="shadowMatrixOuter1"></feMergeNode>
                <feMergeNode in="shadowMatrixOuter2"></feMergeNode>
            </feMerge>
        </filter>
    </defs>
    <g id="Desktop-Landscape" stroke="none" stroke-width="1" fill="none" fill-rule="evenodd">
        <g id="Main-screen-resting-Desktop-Landscape" transform="translate(-662.000000, -828.000000)">
            <g id="footer" transform="translate(0.000000, 826.000000)">
                <g id="social-icon" transform="translate(600.000000, 4.000000)">
                    <g id="Material/Icons/Custom-color/twitter/active" transform="translate(64.000000, 0.000000)">
                        <g id="24x24">
                            <use fill="black" fill-opacity="1" filter="url(#filter-2)" xlink:href="#path-1"></use>
                            <use fill="#FFFFFF" fill-rule="evenodd" xlink:href="#path-1"></use>
                        </g>
                        <path d="M14.4,0 L1.6,0 C0.72,0 0,0.72 0,1.6 L0,14.4 C0,15.28 0.72,16 1.6,16 L14.4,16 C15.28,16 16,15.28 16,14.4 L16,1.6 C16,0.72 15.28,0 14.4,0 L14.4,0 Z M12.56,5.84 C12.48,9.52 10.16,12.08 6.64,12.24 C5.2,12.32 4.16,11.84 3.2,11.28 C4.24,11.44 5.6,11.04 6.32,10.4 C5.28,10.32 4.64,9.76 4.32,8.88 C4.64,8.96 4.96,8.88 5.2,8.88 C4.24,8.56 3.6,8 3.52,6.72 C3.76,6.88 4.08,6.96 4.4,6.96 C3.68,6.56 3.2,5.04 3.76,4.08 C4.8,5.2 6.08,6.16 8.16,6.32 C7.6,4.08 10.64,2.88 11.84,4.4 C12.4,4.32 12.8,4.08 13.2,3.92 C13.04,4.48 12.72,4.8 12.32,5.12 C12.72,5.04 13.12,4.96 13.44,4.8 C13.36,5.2 12.96,5.52 12.56,5.84 L12.56,5.84 Z" id="twitter" fill="#55ACEE" fill-rule="evenodd"></path>
                    </g>
                </g>
            </g>
        </g>
    </g>
</svg>