<?xml version="1.0" encoding="UTF-8" standalone="no"?>
<svg width="8px" height="20px" viewBox="0 0 8 20" version="1.1" xmlns="http://www.w3.org/2000/svg" xmlns:xlink="http://www.w3.org/1999/xlink">
    <!-- Generator: sketchtool 3.8.3 (29802) - http://www.bohemiancoding.com/sketch -->
    <title>94429FAD-908D-4BB7-9A14-270262035899</title>
    <desc>Created with sketchtool.</desc>
    <defs></defs>
    <g id="Desktop-Landscape" stroke="none" stroke-width="1" fill="none" fill-rule="evenodd">
        <g id="Main-screen-resting-Desktop-Landscape" transform="translate(-36.000000, -712.000000)">
            <g id="instrumental-buttons" transform="translate(24.000000, 642.000000)">
                <g id="Material/Icons/Black/ruler/active" transform="translate(4.000000, 68.000000)">
                    <rect id="24x24" x="0" y="0" width="24" height="24"></rect>
                    <path d="M8,2 L16,2 L16,22 L8,22 L8,2 Z M14.6666667,20.75 L14.6666667,3.25 L9.33333333,3.25 L9.33333333,5.125 L10.6666667,5.125 L10.6666667,6.375 L9.33333333,6.375 L9.33333333,7.625 L12,7.625 L12,8.875 L9.33333333,8.875 L9.33333333,10.125 L10.6666667,10.125 L10.6666667,11.375 L9.33333333,11.375 L9.33333333,12.625 L12,12.625 L12,13.875 L9.33333333,13.875 L9.33333333,15.125 L10.6666667,15.125 L10.6666667,16.375 L9.33333333,16.375 L9.33333333,17.625 L12,17.625 L12,18.875 L9.33333333,18.875 L9.33333333,20.75 L14.6666667,20.75 Z" id="ruler" fill-opacity="0.54" fill="#000000" fill-rule="evenodd"></path>
                </g>
            </g>
        </g>
    </g>
</svg>