<?xml version="1.0" encoding="UTF-8" standalone="no"?>
<svg width="15px" height="23px" viewBox="0 0 15 23" version="1.1" xmlns="http://www.w3.org/2000/svg" xmlns:xlink="http://www.w3.org/1999/xlink">
    <!-- Generator: sketchtool 3.8.3 (29802) - http://www.bohemiancoding.com/sketch -->
    <title>F74CE897-5A0C-4407-BF4D-FBB9C73A66A1</title>
    <desc>Created with sketchtool.</desc>
    <defs></defs>
    <g id="Desktop-Landscape" stroke="none" stroke-width="1" fill="none" fill-rule="evenodd">
        <g id="Main-screen-tooltip-and-hover-Desktop-Landscape" transform="translate(-1181.000000, -651.000000)">
            <g id="fab-mini" transform="translate(1168.000000, 642.000000)">
                <g id="Material/Icons/Black/information-pin/active" transform="translate(8.000000, 8.000000)">
                    <rect id="24x24" x="0" y="0" width="24" height="24"></rect>
                    <path d="M13.3175906,10.7439078 L13.8197143,10.7439078 L13.8197143,11.5655608 L13.3175906,11.5655608 L13.3175906,11.5721152 L11.7854368,11.5721152 L11.7854368,11.5655608 L11.1810164,11.5655608 L11.1810164,10.7439078 L11.7854368,10.7439078 L11.7854368,7.67110349 L11.21602,7.67110349 L11.21602,6.8116702 L11.7854368,6.8116702 L11.7854368,6.80904844 L13.3175906,6.80904844 L13.3175906,10.7439078 L13.3175906,10.7439078 Z M12.5418059,6.22479917 C13.0561426,6.22479917 13.368565,5.89378508 13.368565,5.485261 C13.3580222,5.06588014 13.0561426,4.74572283 12.5621957,4.74572283 C12.0685968,4.74572283 11.7459795,5.06591375 11.7459795,5.485261 C11.7453184,5.89378508 12.0573928,6.22479917 12.5418059,6.22479917 L12.5418059,6.22479917 Z M20,8.24510101 C20,12.2476219 12.4996694,24 12.4996694,24 C12.4996694,24 5,12.2476219 5,8.24510101 C5,4.24422708 8.35734947,1 12.4996694,1 C16.6416067,1 20,4.24422708 20,8.24510101 L20,8.24510101 Z M18.3033016,8.24510101 C18.3033016,5.1542133 15.6999552,2.6400121 12.4996694,2.6400121 C9.30039272,2.6400121 6.69739433,5.1542133 6.69774228,8.24510101 C6.69774228,11.3372996 9.30074067,13.8515008 12.4996694,13.8515008 C15.6999552,13.8515344 18.3033016,11.3372996 18.3033016,8.24510101 L18.3033016,8.24510101 Z" id="information-pin" fill-opacity="0.54" fill="#000000" fill-rule="evenodd"></path>
                </g>
            </g>
        </g>
    </g>
</svg>