<svg xmlns="http://www.w3.org/2000/svg" width="8" height="20" viewBox="0 0 8 20">
  <g fill="none" fill-rule="evenodd" transform="translate(-8 -2)">
    <rect width="24" height="24"/>
    <path fill="#0097A7" d="M8,2 L16,2 L16,22 L8,22 L8,2 Z M14.6666667,20.75 L14.6666667,3.25 L9.33333333,3.25 L9.33333333,5.125 L10.6666667,5.125 L10.6666667,6.375 L9.33333333,6.375 L9.33333333,7.625 L12,7.625 L12,8.875 L9.33333333,8.875 L9.33333333,10.125 L10.6666667,10.125 L10.6666667,11.375 L9.33333333,11.375 L9.33333333,12.625 L12,12.625 L12,13.875 L9.33333333,13.875 L9.33333333,15.125 L10.6666667,15.125 L10.6666667,16.375 L9.33333333,16.375 L9.33333333,17.625 L12,17.625 L12,18.875 L9.33333333,18.875 L9.33333333,20.75 L14.6666667,20.75 Z"/>
  </g>
</svg>
