<svg xmlns="http://www.w3.org/2000/svg" width="20" height="14" viewBox="0 0 20 14">
  <g fill="none" fill-rule="evenodd" transform="translate(-2 -5)">
    <rect width="24" height="24"/>
    <path fill="#000000" fill-opacity=".54" d="M9,5 C10.933,5 12.5,6.567 12.5,8.5 C12.5,10.433 10.933,12 9,12 C7.06701,12 5.5,10.433 5.5,8.5 C5.5,6.567 7.06701,5 9,5 L9,5 Z M9,13.75 C12.866,13.75 16,15.317 16,17.25 L16,19 L2,19 L2,17.25 C2,15.317 5.13401,13.75 9,13.75 L9,13.75 Z M17,12.6642 L14.25,9.66421 L15.4142,8.5 L17,10.0858 L20.5858,6.5 L21.75,7.91421 L17,12.6642 L17,12.6642 Z"/>
  </g>
</svg>
