<?xml version="1.0" encoding="UTF-8"?>
<svg width="21px" height="17px" viewBox="0 0 21 17" version="1.1" xmlns="http://www.w3.org/2000/svg" xmlns:xlink="http://www.w3.org/1999/xlink">
    <!-- Generator: sketchtool 39.1 (31720) - http://www.bohemiancoding.com/sketch -->
    <title>69B3FE79-1AF9-4723-B374-BFEDAE90F259</title>
    <desc>Created with sketchtool.</desc>
    <defs></defs>
    <g id="Desktop-Landscape" stroke="none" stroke-width="1" fill="none" fill-rule="evenodd">
        <g id="List-of-meetings-Desktop-Landscape" transform="translate(-1170.000000, -108.000000)">
            <g id="Material/Icons/White/Active/sort" transform="translate(1168.000000, 104.000000)">
                <g>
                    <rect id="24x24" x="0" y="0" width="24" height="24"></rect>
                    <path d="M10.5,13.5 L10.5,11.5 L18.5,11.5 L18.5,13.5 L10.5,13.5 L10.5,13.5 Z M10.5,19.5 L10.5,17.5 L14.5,17.5 L14.5,19.5 L10.5,19.5 L10.5,19.5 Z M10.5006,7.502 L10.5,5.5 L22.5,5.5 L22.5006,7.502 L10.5006,7.502 L10.5006,7.502 Z M6.50001,17.5 L9.00001,17.5 L5.50001,21 L2.00001,17.5 L4.50001,17.5 L4.5,7.5 L2,7.5 L5.5,4 L9,7.5 L6.5,7.5 L6.50001,17.5 L6.50001,17.5 Z" id="sort" fill="#FFFFFF"></path>
                </g>
            </g>
        </g>
    </g>
</svg>